<svg viewBox="0 0 157.02 127.78" xmlns="http://www.w3.org/2000/svg" data-sanitized-data-name="Layer 1" data-name="Layer 1" id="Layer_1">
  <defs>
    <style>
      .cls-1 {
        fill: #cf8d99;
      }
    </style>
  </defs>
  <g>
    <path d="m132.6,107.64h-1.5q-.43,0-.43.43v12.21h-15.21v-12.42c0-.21,0-.43-.43-.43h-1.5q-.43,0-.43.43v18.64l.21.21h2.14v-4.93h15.21v4.93l.21.21h2.14v-18.85q-.21-.43-.43-.43Z" class="cls-1"></path>
    <path d="m103.25,116.85c-1.5-.64-3.21-1.07-4.93-1.71-1.07-.43-2.14-.86-2.78-1.5-.86-.86-1.07-2.14-.43-3,.43-.86,1.29-1.29,2.14-1.71,1.5-.43,3-.43,4.5,0,1.29.21,2.14.86,2.78,1.93.21.43.43.43.86.43.21,0,.43,0,.43-.43v-1.93c0-.21,0-.43-.43-.43-1.93-.86-3.86-1.29-6-1.29-1.5,0-2.78.21-4.07.86s-2.14,1.5-2.57,2.78c-.64,2.36.43,4.28,2.57,5.57,1.93,1.07,3.86,1.5,6,2.14,1.29.43,2.57.86,3.43,1.71,1.29,1.07,1.5,3,.21,4.07-.64.64-1.5,1.07-2.36,1.5-1.07.43-2.14.43-3.21.21-.86,0-1.5,0-2.36-.21-1.5-.43-2.78-1.29-3.64-2.57-.21-.43-.64-.64-1.29-.43v2.36c0,.21,0,.43.43.64,1.71,1.07,3.64,1.93,5.78,1.93,1.5,0,3.21,0,4.71-.43s2.78-1.29,3.86-2.57c1.5-1.71,1.29-4.5-.43-6-.86-.86-1.93-1.5-3.21-1.93Z" class="cls-1"></path>
    <path d="m86.33,120.49c-1.93-4.5-4.07-8.78-6-13.28,0-.21-.21-.43-.43-.43s-.43,0-.43.43c-1.29,2.57-2.36,5.14-3.64,7.5-1.93,3.86-3.64,7.71-5.57,11.57,0,.21-.21.21-.21.43h1.5c.21,0,.43,0,.64-.43.64-1.29,1.07-2.36,1.71-3.64.43-.86.86-1.07,1.71-1.07h8.57c.43,0,.43.21.64.43.64,1.5,1.29,3,1.93,4.28l.21.21h2.36v-.21c-1.07-1.71-1.93-3.64-3-5.78Zm-11.35-.21c1.5-3,3-6.21,4.5-9.21,1.5,3.21,2.78,6.21,4.07,9.21h-8.57Z" class="cls-1"></path>
    <path d="m64.27,125.21c-1.29,0-2.57-.43-3.86-1.29s-2.36-1.71-3.43-2.57c-.21-.21-.64-.43-.86-.86.86,0,1.71,0,2.57-.21,4.07-.43,6.86-4.71,5.36-8.57-1.07-2.57-3.43-4.07-6.21-4.07h-8.35q-.43,0-.43.43v18.85h2.36v-6.43h1.93c1.29,1.07,2.36,2.36,3.64,3.43,1.29,1.29,2.78,2.14,4.71,2.78,2.36.64,4.5-.21,5.78-2.36-.21,0-.43.21-.64.21-.86.21-1.71.64-2.57.64Zm-12.85-6.43v-9c0-.21,0-.43.43-.43h4.93c1.5,0,3,.43,4.07,1.71,1.71,1.93,1.5,5.78-1.71,7.07-.86.43-1.71.64-2.57.64-.43,0-5.14,0-5.14,0Z" class="cls-1"></path>
    <path d="m156.81,126.49c-.86-1.93-1.93-4.07-2.78-6-1.93-4.5-4.07-8.78-6-13.28,0-.21-.21-.43-.43-.43s-.43,0-.43.43c-1.29,2.57-2.36,5.14-3.64,7.5-1.93,3.86-3.64,7.71-5.57,11.57,0,.21-.21.21-.21.43h1.5c.21,0,.43,0,.64-.43.64-1.29,1.07-2.36,1.71-3.64.43-.86.86-1.07,1.71-1.07h8.57c.43,0,.43.21.64.43.64,1.5,1.29,3,1.93,4.28l.21.21h2.36q0,.21-.21,0Zm-14.14-6.21c1.5-3,3-6.21,4.5-9.21,1.5,3.21,2.78,6.21,4.07,9.21h-8.57Z" class="cls-1"></path>
    <path d="m42.2,120.49c-1.93-4.5-4.07-8.78-6-13.28,0-.21-.21-.21-.43-.21s-.43,0-.43.43c-3,6-5.78,12.21-8.78,18.21-.21.43-.43.86-.64,1.29h1.5c.21,0,.43,0,.43-.43.64-1.29,1.29-2.57,1.71-3.64.21-.64.86-1.07,1.5-1.07h8.78c.21,0,.43,0,.64.43.64,1.5,1.29,3,2.14,4.5l.21.21h2.36c0-.21-.21-.43-.21-.64-1.07-1.93-1.93-3.86-2.78-5.78Zm-11.35-.21c1.5-3,3-6.21,4.5-9.21h0c1.29,3,2.78,6,4.07,9.21h-8.57Z" class="cls-1"></path>
    <path d="m20.99,107.64h-1.5q-.43,0-.43.43v13.5h-.21v-.21c-1.71-1.93-3.64-3.43-5.78-4.71-1.93-1.07-4.07-2.14-5.78-3.64-1.5-1.29-3-2.57-4.07-4.28-.21-.43-.43-.64-.64-.86l-.21-.21H0v.86h.21c.86.21,1.29.86,1.29,1.71v16.49h2.36v-14.14c.43.43.64.64,1.07.86,1.71,1.5,3.86,2.78,5.78,3.86,1.93,1.07,3.64,2.14,5.14,3.64,1.71,1.5,3.21,3.43,3.86,5.57l.21.21h1.5v-18.85q-.21-.21-.43-.21Z" class="cls-1"></path>
  </g>
  <g>
    <path d="m91.69,42.95c3-3.21,7.5-4.71,11.57-6,4.07-1.5,8.78-2.14,13.07-.64-4.28.43-8.35,1.29-12.64,2.36-3.86,1.29-7.71,3.21-12,4.28h0Z" class="cls-1"></path>
    <path d="m112.25,40.37c-4.71,0-9-1.71-9.21-1.71l-.43-1.29c.21-.21,6-7.07,11.78-6.43,5.57.64,9.85,4.71,10.07,4.93l-.21,1.5c-.43,0-7.71,3-12,3Zm-7.5-3c1.5.43,4.5,1.07,7.28,1.07,3,0,7.71-1.5,9.85-2.36-1.5-1.29-4.5-3.21-7.93-3.43-3.43-.43-7.28,3-9.21,4.71Z" class="cls-1"></path>
    <path d="m97.26,39.09c4.93-5.57,7.5-12.85,8.35-20.35.21-1.07.21-2.14.64-3.21.86,2.78.86,5.57.64,8.35-.64,3.86-1.93,7.71-4.07,11.14-1.29,1.93-2.57,3.86-4.28,5.36l-1.29-1.29h0Z" class="cls-1"></path>
    <path d="m105.82,27.52l-1.29-.43c0-.21-1.93-3.64-2.78-7.5-1.71-6.86,1.29-12.85,1.5-13.07l1.07-.43c.21,0,7.07,2.57,7.93,9.85.43,6.86-6.21,11.35-6.43,11.57Zm-1.5-19.49c-.64,1.71-2.14,6.43-.86,11.14.64,2.36,1.71,4.93,2.36,6.21,1.71-1.29,5.14-4.71,4.71-9.21-.86-4.93-4.71-7.28-6.21-8.14Z" class="cls-1"></path>
    <path d="m113.32,29.45c-1.93,0-4.07-.86-4.28-.86l-.43-1.07c0-.21,1.5-3,3.64-4.07,1.93-.86,6.64.21,7.71.43l.43,1.5c-.43.43-3.64,3.64-6,4.07h-1.07Zm-2.57-2.14c1.07.21,2.36.64,3.43.43.86-.21,2.57-1.5,3.86-2.57-1.93-.43-4.07-.64-4.93-.21-1.07.64-1.93,1.71-2.36,2.36Z" class="cls-1"></path>
    <path d="m94.04,42.3l-1.29-.43c0-.21-.86-2.36-.21-4.07.43-1.5,3.21-3.21,4.07-3.64l1.29.64c0,.64,0,3.64-.86,5.14-.64,1.29-2.78,2.36-3,2.36Zm2.14-5.78c-1.07.64-1.71,1.5-1.93,1.93-.21.64-.21,1.29,0,1.71.64-.43,1.07-.86,1.5-1.29.21-.21.43-1.29.43-2.36Z" class="cls-1"></path>
    <path d="m59.55,20.45c-1.07,0-3.43-.43-6.64-2.36-2.57-1.5-5.36-5.36-5.57-5.57v-1.07c.43-.43,8.57-10.07,16.71-9.85,4.28,0,5.14,1.29,5.36,1.93l-1.5.43v.21s-.64-.64-3.64-.86c-6.21-.21-13.07,6.64-15,8.78.86,1.07,3,3.43,4.71,4.5,3.86,2.36,6,2.14,6,2.14l.43,1.71c-.21-.21-.43,0-.86,0Z" class="cls-1"></path>
    <path d="m119.75,59.23l-.43-1.71c.21,0,4.28-1.5,4.71-6.86.43-5.36-2.36-7.71-3.21-8.57-.64.21-2.36.64-4.28,1.93-3.21,2.36-3.86,4.5-3.86,4.5l-1.71-.43c0-.21.86-2.78,4.5-5.36,2.78-1.93,5.36-2.36,5.36-2.36l.64.21c.21.21,4.93,3,4.5,10.28-.86,6.43-6,8.14-6.21,8.35Z" class="cls-1"></path>
    <path d="m66.19,89.43c-3.21,0-12-.43-14.78-4.71-1.71-2.57-1.29-5.57-1.07-5.78l1.71.21-.86-.21.86.21s-.43,2.57.86,4.5c2.14,3.43,10.07,3.86,13.71,3.86,0-1.07.21-3,.21-5.36,0-2.78-1.71-4.07-1.71-4.07l1.07-1.29s2.36,1.93,2.36,5.57-.21,6.21-.21,6.43l-.86.86c0-.21-.64-.21-1.29-.21Z" class="cls-1"></path>
    <path d="m75.41,83.86l-1.07-.43c0-.21-1.93-3.64-1.29-7.71.64-4.5,5.14-7.28,5.36-7.28l1.29.21c.21.21,3,4.28,2.14,8.78-1.07,4.71-6.21,6.43-6.43,6.43Zm3.43-13.28c-1.29.86-3.43,3-3.86,5.57-.43,2.36.21,4.71.86,5.78,1.29-.64,3.86-2.14,4.5-4.71.21-2.57-.86-5.36-1.5-6.64Z" class="cls-1"></path>
    <path d="m77.98,75.72c.43,3.64-1.07,7.5-4.07,9.85.64-3.64,1.93-6.86,4.07-9.85h0Z" class="cls-1"></path>
    <path d="m67.91,92.22c2.14-2.78,4.93-4.93,8.35-6,4.71-1.07,10.07-1.07,14.78.43-1.07,0-2.14-.21-3-.21-3.64,0-7.5.43-11.14,1.5-3.21,1.29-5.78,3-9,4.28h0Z" class="cls-1"></path>
    <path d="m88.9,91.79h0c-6.86,0-9.64-4.71-9.85-4.93v-.64c0-.21,1.71-4.71,9.21-5.14,5.57-.43,12.64,4.71,12.85,4.93v1.5c-.43-.21-6.43,4.28-12.21,4.28Zm-8.14-5.57c.86,1.07,3.21,3.86,8.14,3.86h0c3.86,0,8.14-2.36,10.07-3.43-2.14-1.29-6.86-4.07-10.71-3.86-5.14.21-7.07,2.57-7.5,3.43Z" class="cls-1"></path>
    <path d="m49.91,37.38c-.43-.21-12.42-2.78-12.42-11.14,0-6,5.14-10.93,5.36-11.14h1.29c.21.21,4.93,6.43,6.21,11.78.86,4.07.43,9.21.43,9.43l-.86,1.07Zm-6.64-20.14c-1.29,1.5-4.07,5.14-4.07,9,0,5.57,7.28,8.35,9.85,9,0-1.71.21-5.14-.64-7.71-.64-3.64-3.86-8.35-5.14-10.28Z" class="cls-1"></path>
    <path d="m43.49,25.17c1.07,1.71,1.5,3.21,2.36,4.93,1.5,3.21,3.86,5.57,6.86,7.71,1.5,1.07,3,1.93,4.28,3.21-4.5-.64-9-4.07-11.35-7.71-1.29-2.57-2.57-5.36-2.14-8.14h0Z" class="cls-1"></path>
    <path d="m54.41,30.31c-.43-.21-2.57-1.71-2.57-3.43-.21-1.5.86-4.71.86-4.93l1.5-.21c.64,1.07,2.36,3.86,2.36,4.93s-.86,3-1.07,3.43l-1.07.21Zm-.64-6c-.21.86-.43,1.93-.43,2.36s.43,1.07,1.07,1.5c.21-.64.43-1.29.43-1.5,0-.43-.43-1.29-1.07-2.36Z" class="cls-1"></path>
    <path d="m36.42,57.94c-.21,0-4.28-1.07-5.14-6.64-.64-5.14,1.29-15.42,1.5-15.85l1.07-.64c.43,0,7.93,2.57,11.57,4.28,2.14,1.07,3.21,4.07,3.21,4.28l-1.71.64c-.21-.64-1.07-2.57-2.36-3.21-2.78-1.5-8.35-3.21-10.5-3.86-.43,2.78-1.71,10.5-1.29,14.35.64,4.5,3.64,5.14,3.86,5.14l-.21,1.5Z" class="cls-1"></path>
    <path d="m75.83,93.07h-1.5c-1.93-.21-3.21-2.57-3.21-2.78l.64-1.29c.43,0,2.78-.43,4.07-.21,1.07.21,3.21,2.14,3.64,2.57l-.43,1.5c-.43.21-1.71.21-3.21.21Zm-2.57-2.57c.43.43.86.64,1.07.64h1.93c-.64-.43-1.07-.86-1.29-.86-.21.21-.86.21-1.71.21Z" class="cls-1"></path>
    <path d="m82.69,66.51h0c-.64-.21-2.36-.64-3.86-3-1.71-2.57-2.57-8.14-2.57-8.35l.64-.86c.21,0,2.78-.86,4.5-1.29,1.93-.43,3.86.21,3.86.21l-.64,1.71s-1.5-.43-3-.21c-1.07.21-2.78.64-3.64.86.21,1.5,1.07,5.14,2.14,6.86s2.14,2.14,2.78,2.14c.21,0,.43.21.64.21l-1.29,1.29c.43.21.43.43.43.43Z" class="cls-1"></path>
    <path d="m63.62,43.8l-.64-.21s-9.64-7.28-4.5-16.07c1.5-2.36,3.86-4.28,4.07-4.28l1.07,1.5s-2.36,1.71-3.43,3.86c-1.93,3-1.71,6.21.21,9.64,1.29,1.93,2.78,3.43,3.43,3.86,2.14-.43,5.78-1.5,6.64-2.78,1.5-1.71,1.07-3.86,1.07-3.86l1.71-.21c0,.21.43,2.78-1.5,5.14-1.71,2.14-7.5,3.21-8.14,3.43Z" class="cls-1"></path>
    <g>
      <path d="m57.41,66.08h-.64c-2.14-.86-3.86-2.57-4.93-4.93v-.64c.86-2.14,2.57-3.86,4.93-4.93h.64c2.14.86,3.86,2.57,4.93,4.93v.64c-1.07,2.36-2.78,4.07-4.93,4.93Zm-3.86-5.14c.64,1.5,1.93,2.78,3.43,3.43,1.5-.64,2.78-1.93,3.43-3.43-.64-1.5-1.93-2.78-3.43-3.43-1.5.64-2.57,1.93-3.43,3.43Z" class="cls-1"></path>
      <path d="m56.98,58.58c-.64.86-1.07,1.71-1.5,2.57v-.64c.21.64.64,1.29,1.07,1.93.21.21.21.43.43.64-.64.21-1.29,0-1.93-.43-.64-.43-1.07-.86-1.29-1.5v-.64c.64-1.07,1.93-2.14,3.21-1.93h0Z" class="cls-1"></path>
      <path d="m52.7,61.58c-1.29-.21-3.86-1.71-3.21-5.36.64-4.07,3.86-5.36,5.78-5.36,1.71,0,3.86.86,4.71,2.57s-.21,4.28-.21,4.5l-1.71-.64c.43-.86.64-2.36.43-3.21-.43-.86-1.93-1.5-3.21-1.5-.86,0-3.64.64-4.07,3.86-.43,2.78,1.5,3.21,1.93,3.43l-.43,1.71Z" class="cls-1"></path>
      <path d="m61.05,68.65h-.43c-1.5-.21-3.21-1.5-3.64-3.64l1.71-.21c.21,1.29,1.29,2.14,1.93,2.14s2.57-.43,2.78-1.5c.43-1.29,0-2.57-.64-3.21s-1.71-.86-1.71-.86l.43-1.71c.21,0,1.5.21,2.57,1.07,1.29,1.07,1.93,3,1.29,4.93-.43,2.14-3,3-4.28,3Z" class="cls-1"></path>
      <path d="m53.98,68.65c-1.93,0-3.43-.86-4.5-2.36-1.07-1.71-1.07-3.21,0-4.93,1.07-1.5,2.78-1.5,3.43-1.07l-.64,1.71.21-.86-.21.86s-1.07-.21-1.5.43c-.64,1.07-.64,1.93,0,3,.86,1.07,1.93,1.71,3.43,1.5,1.71-.21,2.14-1.71,2.14-1.93l1.71.43c0,.21-.86,2.78-3.64,3-.21.21-.43.21-.43.21Z" class="cls-1"></path>
      <path d="m64.69,62.44l-1.5-.86c1.5-2.57,0-4.5-.86-5.36-.86-.64-2.36,0-2.36,0l-.86-1.5s2.57-1.5,4.28,0c1.71,1.5,3,4.5,1.29,7.71Z" class="cls-1"></path>
      <path d="m64.91,62.87l-1.5-.86c1.71-3,2.14-4.93.86-7.07-1.29-2.57-2.57-4.5-4.93-5.57-1.93-.86-3.86-.86-5.78,0-1.71.86-3.43,2.14-3.21,3.43.21,1.5.43,1.93.43,1.93l-1.29,1.07c-.21-.21-.64-.86-.86-2.78-.21-2.14,1.93-4.28,4.28-5.14,2.14-1.07,4.71-1.07,7.28,0,3,1.29,4.71,3.86,5.78,6.43,1.5,3,.64,5.57-1.07,8.57Z" class="cls-1"></path>
      <path d="m57.63,74.65c-1.93,0-4.07-.43-6-2.57-2.14-2.57-1.29-5.36-1.07-5.57l1.71.64-.86-.21.86.21s-.64,1.93.86,3.86c1.5,1.71,3,1.93,5.14,1.93,1.93,0,3.64-1.07,4.28-2.14s.21-2.57,0-3l1.71-.64c0,.21,1.07,2.78-.21,4.71-.86,1.29-2.78,2.78-5.78,3-.43-.43-.64-.21-.64-.21Z" class="cls-1"></path>
      <path d="m51.2,68.65c-4.5-.21-6.86-2.78-6.86-7.28s2.14-6.21,3-6.64c1.29-.64,3.21-.21,3.43,0l-.43,1.71c-.64-.21-1.71-.21-2.36,0s-2.14,1.5-2.14,5.14,1.71,5.36,5.36,5.57v1.5Z" class="cls-1"></path>
      <path d="m65.12,69.29c-.86,0-1.71-.21-2.36-.86l1.07-1.29c1.29,1.29,3.21-.43,3.64-.64,1.5-1.5,2.36-3.86,2.36-6.86s-1.07-5.14-3.21-6.43c-1.29-.64-2.36-.43-2.36-.43l-.64-1.71s1.93-.64,3.86.64c2.78,1.71,4.07,4.28,4.07,7.93,0,3.43-1.07,6.21-3,8.14-.86,1.07-2.14,1.5-3.43,1.5Z" class="cls-1"></path>
      <path d="m62.12,76.58c-2.36,0-3.43-1.93-3.64-2.78l1.71-.43c0,.21.64,1.71,2.14,1.71,2.36,0,3.64-1.71,4.07-2.36.43-.64,1.5-2.57.43-4.5l1.5-.86c1.07,1.93.86,4.28-.64,6.43-.43.64-2.14,2.57-5.57,2.78q.21,0,0,0Z" class="cls-1"></path>
      <path d="m54.41,77.22c-1.29,0-2.57-.21-3.43-.43-2.36-.64-4.93-1.93-6-6-.86-3.86,1.07-5.57,1.29-5.57l1.07,1.5s-1.29,1.07-.64,3.64c.64,3,2.36,4.07,4.71,4.71,1.93.43,6,.86,7.5-1.5l1.5,1.07c-1.29,2.14-3.86,2.57-6,2.57Z" class="cls-1"></path>
      <path d="m45.41,70.37c-.21,0-5.14-1.29-6-5.57-.64-3.21,0-4.93,1.29-6.86,1.29-1.93,4.07-3.21,6.21-3l-.21,1.71c-1.5-.21-3.43.86-4.5,2.14-1.07,1.5-1.5,2.78-1.07,5.57.64,3.21,4.71,4.07,4.71,4.07l-.43,1.93Z" class="cls-1"></path>
      <path d="m39.42,60.94c0-.21-1.71-4.07-.21-7.07,1.29-2.57,3.64-4.93,6.43-6.64,2.57-1.5,4.71-2.36,6.43-1.71s2.36,2.14,2.36,2.14l-1.5.86s-.43-.86-1.5-1.29c-1.07-.43-3.21.64-4.93,1.5-2.57,1.5-4.71,3.64-5.78,6-1.29,2.14.21,5.57.21,5.57l-1.5.64Z" class="cls-1"></path>
      <path d="m56.98,80.86c-1.29,0-2.36,0-3.64-.21-1.71,0-3-.64-3.86-1.71-1.29-1.5-1.07-3.64-1.07-3.64l1.71.21-.86-.21.86.21s-.21,1.29.64,2.36c.43.64,1.29,1.07,2.57,1.07,3.64.21,7.71.21,10.28-1.07,2.14-1.29,3.43-2.36,4.07-3.86.64-1.71.21-1.93-.21-2.14l.64-1.71c1.07.43,2.14,1.71,1.07,4.5-.86,1.93-2.14,3.43-4.93,4.71-1.71,1.07-4.5,1.5-7.28,1.5Z" class="cls-1"></path>
      <path d="m39.63,54.51c-.21-.21-1.93-1.5,0-5.78,1.71-3.64,4.5-5.78,8.57-6.21,3.64-.43,5.78.21,7.07,1.93,1.07,1.71.86,3,.86,3.21l-1.71-.21s.21-1.07-.64-2.14c-.43-.86-1.5-1.71-5.36-1.07-3.43.43-5.78,2.14-7.28,5.36-1.29,2.78-.43,3.64-.43,3.64l-.64.64-.43.64Z" class="cls-1"></path>
      <path d="m71.55,59.44l-1.29-1.29.64.64-.64-.64s1.71-1.93.64-5.14c-.64-2.14-3.21-4.07-5.36-5.14-3.21-1.71-5.78-2.78-7.07-3-.86-.21-2.57.86-3,1.5l-1.29-1.07c.86-1.07,3.21-2.36,4.71-2.14,1.93.21,5.57,2.14,7.5,3.21,2.36,1.29,5.36,3.64,6.21,6.21,1.29,4.07-1.07,6.64-1.07,6.86Z" class="cls-1"></path>
      <path d="m68.34,72.08h0v-1.71h0s2.14,0,3.43-.86c1.07-.64,2.36-2.78,2.57-5.36.21-2.14-.43-5.78-2.57-6.43l.43-1.71c3,.86,4.07,4.93,3.64,8.35-.21,2.78-1.71,5.57-3.43,6.86-1.5.86-3.86.86-4.07.86Z" class="cls-1"></path>
      <path d="m41.99,68.65c-.86,0-3.64-.21-5.36-2.14-1.71-1.93-1.93-5.36-1.5-7.93.43-3,3.21-5.14,4.93-5.78l.64,1.71c-1.29.43-3.43,2.14-3.86,4.28-.21,2.36,0,5.14,1.07,6.43,1.5,1.71,4.28,1.5,4.28,1.5l.21,1.71c-.21.21-.43.21-.43.21Z" class="cls-1"></path>
      <path d="m45.84,77.43c-.43,0-.86,0-1.29-.21-3-.64-4.71-3.64-5.14-5.57s-.21-4.07-.21-4.28l1.71.21s-.21,2.14.21,3.64c.21,1.07,1.5,3.64,3.86,4.07,2.14.43,3.64-.86,3.64-.86l1.29,1.29c-.21.21-1.71,1.71-4.07,1.71Z" class="cls-1"></path>
    </g>
    <g>
      <path d="m101.11,65.44h-.64c-2.14-.86-3.86-2.57-4.93-4.93v-.64c.86-2.14,2.57-3.86,4.93-4.93h.64c2.14.86,3.86,2.57,4.93,4.93v.64c-1.07,2.14-2.78,3.86-4.93,4.93Zm-3.86-5.36c.64,1.5,1.93,2.78,3.43,3.43,1.5-.64,2.78-1.93,3.43-3.43-.64-1.5-1.93-2.78-3.43-3.43-1.5.86-2.57,1.93-3.43,3.43Z" class="cls-1"></path>
      <path d="m97.04,68.01h-1.07c-4.07-.64-5.36-3.86-5.36-5.78,0-1.71.86-3.86,2.57-4.71,1.71-.86,4.28.21,4.5.21l-.64,1.71c-.86-.43-2.36-.64-3.21-.43-.86.43-1.5,1.93-1.5,3.21,0,.86.64,3.64,3.86,4.07,2.78.43,3.21-1.5,3.43-1.93l1.71.43c-.21,1.07-1.5,3.21-4.28,3.21Z" class="cls-1"></path>
      <path d="m104.97,60.08l-.21-1.71c1.29-.21,2.14-1.29,2.14-1.93s-.43-2.57-1.5-2.78c-1.29-.43-2.57,0-3.21.64s-.86,1.71-.86,1.71l-1.71-.43c0-.21.21-1.5,1.07-2.57,1.07-1.29,3-1.93,4.93-1.29,2.14.64,3,3.43,2.78,4.71,0,1.71-1.29,3.43-3.43,3.64Z" class="cls-1"></path>
      <path d="m103.47,68.65c-.86,0-1.71-.21-2.36-.86-1.5-1.07-1.5-2.78-1.07-3.43l1.71.64-.86-.21.86.21s-.21,1.07.43,1.5c1.07.64,1.93.64,3,0,1.07-.86,1.71-1.93,1.5-3.43-.21-1.71-1.71-2.14-1.93-2.14l.43-1.71c.21,0,2.78.86,3,3.64.21,2.14-.64,3.86-2.36,4.93-.64.43-1.5.86-2.36.86Z" class="cls-1"></path>
      <path d="m94.69,58.37s-1.5-2.57,0-4.28c1.5-1.93,4.5-3,7.5-1.29l-.86,1.5c-2.57-1.5-4.5,0-5.36.86-.64.86,0,2.36,0,2.36l-1.29.86Z" class="cls-1"></path>
      <path d="m92.33,68.65c-2.14,0-3.86-2.14-4.93-4.28s-1.07-4.71,0-7.28c1.29-3,3.86-4.71,6.43-5.78,3.21-1.5,6-.64,8.78,1.07l-.86,1.5c-3-1.71-4.93-2.14-7.07-.86-2.57,1.29-4.5,2.57-5.57,4.93-.86,1.93-.86,3.86,0,5.78.86,1.71,2.14,3.43,3.43,3.21,1.5-.21,1.93-.43,1.93-.43l1.07,1.29c-.21.21-.86.64-2.78.86h-.43Z" class="cls-1"></path>
      <path d="m107.97,67.15c-1.07,0-1.71-.21-1.71-.21l.64-1.71-.21.86.21-.86s1.93.64,3.86-.86c1.71-1.5,1.93-3,1.93-5.14,0-1.93-1.07-3.64-2.14-4.28-1.07-.86-3,0-3,0l-.64-1.71c.21,0,2.78-1.07,4.71.21,1.29.86,2.78,2.78,3,5.78,0,2.14-.21,4.5-2.57,6.43-1.5,1.07-3,1.5-4.07,1.5Z" class="cls-1"></path>
      <path d="m100.9,72.94c-4.71,0-6.21-2.14-6.64-3-.64-1.29-.21-3.21,0-3.43l1.71.43c-.21.64-.21,1.71,0,2.36.21.64,1.5,2.14,5.14,2.14s5.36-1.71,5.57-5.36h1.71c-.21,4.5-2.78,6.86-7.5,6.86h0Z" class="cls-1"></path>
      <path d="m108.18,54.3l-1.29-1.07c1.29-1.29-.43-3.21-.64-3.64-1.5-1.5-3.86-2.36-6.86-2.36h0c-3,0-5.14,1.07-6.43,3.21-.64,1.29-.43,2.36-.43,2.36l-1.71.43s-.64-1.93.64-3.86c1.71-2.78,4.28-4.07,7.93-4.07h0c3.43,0,6.21,1.07,8.14,3,1.93,2.14,2.14,4.5.64,6Z" class="cls-1"></path>
      <path d="m113.54,58.8l-.43-1.71c.21,0,1.71-.64,1.71-2.14,0-2.36-1.71-3.64-2.36-4.07-.64-.43-2.57-1.5-4.5-.43l-.86-1.5c1.93-1.07,4.28-.86,6.43.64.86.64,3,2.36,3,5.57,0,1.93-1.93,3.21-3,3.64Z" class="cls-1"></path>
      <path d="m108.82,72.51c-2.57,0-3.64-1.5-3.64-1.5l1.5-1.07s1.07,1.29,3.64.64c3-.64,4.07-2.36,4.71-4.71.43-1.93.86-6-1.5-7.5l1.07-1.5c3.21,2.14,2.78,7.07,2.14,9.43s-1.93,4.93-6,6c-.86.21-1.5.21-1.93.21Z" class="cls-1"></path>
      <path d="m102.4,78.08c-1.93,0-3.21-.64-4.5-1.5-1.93-1.29-3.21-4.07-3-6.21l1.71.21c-.21,1.5.86,3.43,2.14,4.5,1.5,1.07,2.78,1.5,5.57,1.07,3.21-.64,4.07-4.71,4.07-4.71l1.71.43c0,.21-1.29,5.14-5.57,6-.86.21-1.5.21-2.14.21Z" class="cls-1"></path>
      <path d="m96.61,78.72c-1.07,0-1.93-.21-3-.64-2.57-1.29-4.93-3.64-6.64-6.43-1.5-2.57-2.36-4.71-1.71-6.43.64-1.71,2.14-2.36,2.14-2.36l.86,1.5s-.86.43-1.29,1.5.64,3.21,1.5,4.93c1.5,2.57,3.64,4.71,6,5.78,2.14,1.29,5.57-.21,5.57-.21l.64,1.5s-1.93.86-4.07.86Z" class="cls-1"></path>
      <path d="m115.68,68.65h-.64l.21-1.71s1.29.21,2.36-.64c.64-.43,1.07-1.29,1.07-2.57.21-3.64.21-7.71-1.07-10.28-1.29-2.14-2.36-3.43-3.86-4.07-1.71-.64-1.93-.21-2.14.21l-1.71-.64c.43-1.07,1.71-2.14,4.5-1.07,1.93.86,3.43,2.14,4.71,4.93,1.5,2.78,1.5,7.07,1.29,11.14,0,1.71-.64,3-1.71,3.86-1.07.64-2.14.86-3,.86Z" class="cls-1"></path>
      <path d="m92.11,78.29c-.86,0-1.93-.21-3.43-.86-3.64-1.71-5.78-4.5-6.21-8.57-.43-3.64.21-5.78,1.93-7.07,1.71-1.07,3-.86,3.21-.86l-.21,1.71s-1.07-.21-2.14.64c-.86.43-1.71,1.5-1.07,5.36.43,3.43,2.14,5.78,5.36,7.28,2.78,1.29,3.64.43,3.64.43l.64.64.64.64c-.21,0-.86.64-2.36.64Z" class="cls-1"></path>
      <path d="m85.05,62.87c-1.07-.86-2.36-3.21-2.14-4.71.21-1.93,2.14-5.57,3.21-7.5,1.29-2.36,3.64-5.36,6.21-6.21,4.07-1.29,6.64,1.07,6.86,1.07l-1.07,1.29s-1.93-1.71-5.14-.64c-2.14.64-4.07,3.21-5.14,5.36-1.71,3.21-2.78,5.78-3,7.07-.21.86.86,2.57,1.5,3l-1.29,1.29Z" class="cls-1"></path>
      <path d="m111.82,48.94h-1.71.86-.86s0-2.14-.86-3.43c-.64-1.07-2.78-2.36-5.36-2.57-2.14-.21-5.78.43-6.43,2.57l-1.71-.43c.86-3,4.93-4.07,8.35-3.64,2.78.21,5.57,1.71,6.86,3.43.86,1.5.86,3.86.86,4.07Z" class="cls-1"></path>
      <path d="m100.68,82.36c-.64,0-1.29,0-1.93-.21-3-.43-5.14-3.21-5.78-4.93l1.71-.64c.43,1.29,2.14,3.43,4.28,3.86,2.36.21,5.14,0,6.43-1.07,1.71-1.5,1.5-4.28,1.5-4.28l1.71-.21c0,.21.21,3.64-2.14,5.78-1.5,1.29-3.64,1.71-5.78,1.71Z" class="cls-1"></path>
      <path d="m109.04,77.86h-1.71l.21-1.71s2.14.21,3.64-.21c1.07-.21,3.64-1.5,4.07-3.86.43-2.14-.86-3.64-.86-3.64l1.29-1.29s2.14,2.14,1.29,5.14c-.64,3-3.64,4.71-5.57,5.14-.64.43-1.5.43-2.36.43Z" class="cls-1"></path>
      <path d="m100.68,57.94c-.64.86-1.07,1.71-1.5,2.57v-.64c.21.64.64,1.29,1.07,1.93.21.21.21.43.43.64-.64.21-1.29,0-1.93-.43s-1.07-.86-1.29-1.5v-.64c.64-1.29,1.93-2.36,3.21-1.93h0Z" class="cls-1"></path>
    </g>
    <g>
      <path d="m78.4,25.17h-.64c-2.14-.86-3.86-2.57-4.93-4.93v-.64c.86-2.14,2.57-3.86,4.93-4.93h.64c2.14.86,3.86,2.57,4.93,4.93v.64c-.86,2.14-2.57,3.86-4.93,4.93Zm-3.64-5.36c.64,1.5,1.93,2.78,3.43,3.43,1.5-.64,2.78-1.93,3.43-3.43-.64-1.5-1.93-2.78-3.43-3.43-1.5.86-2.78,1.93-3.43,3.43Z" class="cls-1"></path>
      <path d="m80.12,29.88h0c-1.93,0-4.07-.86-4.93-2.57s.21-4.28.21-4.5l1.71.64c-.43.86-.64,2.36-.43,3.21.43.86,1.93,1.5,3.21,1.5.86,0,3.64-.64,4.07-3.86.43-2.78-1.5-3.21-1.93-3.43l.43-1.71c1.29.21,3.86,1.71,3.21,5.36-.43,4.07-3.43,5.36-5.57,5.36Z" class="cls-1"></path>
      <path d="m73.69,21.1c-.21,0-1.5-.21-2.57-1.07-1.29-1.07-1.93-3-1.29-4.93.64-2.14,3.43-3,4.71-2.78,1.5.21,3.21,1.5,3.64,3.64l-1.71.21c-.21-1.29-1.29-2.14-1.93-2.14s-2.57.43-2.78,1.5c-.43,1.29,0,2.57.64,3.21.64.64,1.71.86,1.71.86l-.43,1.5Z" class="cls-1"></path>
      <path d="m83.33,20.88c-.43,0-.86,0-1.07-.21l.64-1.71-.21.86.21-.86s1.07.21,1.5-.43c.64-1.07.64-1.93,0-3-.86-1.07-1.93-1.71-3.43-1.5-1.71.21-2.14,1.71-2.14,1.93l-1.71-.43c0-.21.86-2.78,3.64-3,2.14-.21,3.86.64,4.93,2.36,1.07,1.71,1.07,3.21,0,4.93-.64.86-1.5,1.07-2.36,1.07Z" class="cls-1"></path>
      <path d="m73.91,26.66c-.64,0-1.29-.21-1.93-.64-1.93-1.5-3-4.5-1.29-7.5l1.5.86c-1.5,2.57,0,4.5.86,5.36.86.64,2.36,0,2.36,0l.86,1.5c0-.21-1.07.43-2.36.43Z" class="cls-1"></path>
      <path d="m78.83,34.16c-1.29,0-2.36-.21-3.64-.86-3-1.29-4.71-3.86-5.78-6.43-1.5-3.21-.64-6,1.07-8.78l1.5.86c-1.71,3-2.14,4.93-.86,7.07,1.29,2.57,2.57,4.5,4.93,5.57,1.93.86,3.86.86,5.78,0,1.71-.86,3.43-2.14,3.21-3.43-.21-1.5-.43-1.93-.43-1.93l1.29-1.07c.21.21.64.86.86,2.78.21,2.14-1.93,4.28-4.28,5.14-1.29.86-2.36,1.07-3.64,1.07Z" class="cls-1"></path>
      <path d="m84.83,14.45l-1.71-.64.86.21-.86-.21s.64-1.93-.86-3.86c-1.5-1.71-3-1.93-5.14-1.93-1.93,0-3.64,1.07-4.28,2.14s-.21,2.57,0,3l-1.71.64c0-.21-1.07-2.78.21-4.71.86-1.29,2.78-2.78,5.78-3,2.14,0,4.5.21,6.43,2.57,2.36,2.78,1.29,5.57,1.29,5.78Z" class="cls-1"></path>
      <path d="m86.33,26.66c-.86,0-1.71-.21-1.93-.21l.43-1.71c.64.21,1.71.21,2.36,0,.64-.21,2.14-1.5,2.14-5.14s-1.71-5.36-5.36-5.57v-1.71c4.5.21,6.86,2.78,6.86,7.28s-2.14,6.21-3,6.64c-.21.43-.86.43-1.5.43Z" class="cls-1"></path>
      <path d="m70.05,29.88c-.64,0-1.71-.21-2.57-.64-2.78-1.71-4.07-4.28-4.07-7.93,0-3.43,1.07-6.21,3-8.14,1.93-1.93,4.28-2.14,6-.64l-1.07,1.29c-1.29-1.29-3.21.43-3.64.64-1.5,1.5-2.36,3.86-2.36,6.86s1.07,5.14,3.21,6.43c1.29.64,2.36.43,2.36.43l.43,1.71c0-.21-.43,0-1.29,0Z" class="cls-1"></path>
      <path d="m66.84,13.81c-1.07-1.93-.86-4.28.64-6.43.64-.86,2.36-3,5.57-3,2.36,0,3.64,1.71,3.86,2.78l-1.71.43c0-.21-.64-1.71-2.14-1.71-2.36,0-3.64,1.71-4.07,2.36s-1.5,2.57-.43,4.5l-1.71,1.07Z" class="cls-1"></path>
      <path d="m89.12,15.53l-1.07-1.5s1.29-1.07.64-3.64c-.64-3-2.36-4.07-4.71-4.71-1.93-.43-6-.86-7.5,1.5l-1.5-1.07c2.14-3.21,7.07-2.78,9.43-2.14s4.93,1.93,6,6c.86,3.86-1.29,5.57-1.29,5.57Z" class="cls-1"></path>
      <path d="m89.12,25.81h-.64l.21-1.71c1.5.21,3.43-.86,4.5-2.14,1.07-1.5,1.5-2.78,1.07-5.57-.64-3.21-4.71-4.07-4.71-4.07l.43-1.71c.21,0,5.14,1.29,6,5.57.64,3.21,0,4.93-1.29,6.86-1.29,1.5-3.64,2.78-5.57,2.78Z" class="cls-1"></path>
      <path d="m84.4,35.66c-.43,0-.86,0-1.29-.21-1.71-.64-2.36-2.14-2.36-2.14l1.5-.86s.43.86,1.5,1.29c1.07.43,3.21-.64,4.93-1.5,2.57-1.5,4.71-3.64,5.78-6,1.29-2.14-.21-5.57-.21-5.57l1.5-.64c0,.21,1.71,4.07.21,7.07-1.29,2.57-3.64,4.93-6.43,6.64-2.14,1.07-3.64,1.93-5.14,1.93Z" class="cls-1"></path>
      <path d="m66.84,10.6c-1.07-.43-2.14-1.71-1.07-4.5.86-1.93,2.14-3.43,4.93-4.71,2.78-1.5,7.07-1.5,11.14-1.29,1.71,0,3,.64,3.86,1.71,1.29,1.5,1.07,3.64,1.07,3.64l-1.71-.21.86.21-.86-.21s.21-1.29-.64-2.36c-.43-.64-1.29-1.07-2.57-1.07-3.64-.21-7.71-.21-10.28,1.07-2.14,1.29-3.43,2.36-4.07,3.86-.64,1.71-.21,1.93.21,2.14l-.86,1.71Z" class="cls-1"></path>
      <path d="m84.62,38.45c-2.36,0-3.86-.64-4.71-2.14-1.07-1.71-.86-3-.86-3.21l1.71.21s-.21,1.07.64,2.14c.43.86,1.5,1.71,5.36,1.07,3.43-.43,5.78-2.14,7.28-5.36,1.29-2.78.43-3.64.43-3.64l.64-.64.64-.64c.21.21,1.93,1.5,0,5.78-1.71,3.64-4.5,5.78-8.57,6.21-1.07.21-1.71.21-2.57.21Z" class="cls-1"></path>
      <path d="m76.69,37.8h-.43c-1.93-.21-5.57-2.14-7.5-3.21-2.36-1.29-5.36-3.64-6.21-6.21-1.29-4.07,1.07-6.64,1.07-6.86l1.29,1.29-.64-.64.64.64s-1.71,1.93-.64,5.14c.64,2.14,3.21,4.07,5.36,5.14,3.21,1.71,5.78,2.78,7.07,3,.86.21,2.57-.86,3-1.5l1.29,1.07c-.86.86-2.78,2.14-4.28,2.14Z" class="cls-1"></path>
      <path d="m62.77,24.95c-3-.86-4.07-4.93-3.64-8.35.21-2.78,1.71-5.57,3.43-6.86,1.71-1.07,4.28-1.07,4.28-1.07v1.71s-2.14,0-3.43.86c-1.07.64-2.36,2.78-2.57,5.36-.21,2.14.43,5.78,2.57,6.43l-.64,1.93Z" class="cls-1"></path>
      <path d="m95.33,27.74l-.64-1.71c1.29-.43,3.43-2.14,3.86-4.28.21-2.36,0-5.14-1.07-6.43-1.5-1.71-4.28-1.5-4.28-1.5l-.21-1.71c.21,0,3.64-.21,5.78,2.14,1.71,1.93,1.93,5.36,1.5,7.93-.43,3-3.21,4.93-4.93,5.57Z" class="cls-1"></path>
      <path d="m95.97,13.17l-1.71-.21s.21-2.14-.21-3.64c-.21-1.07-1.5-3.64-3.86-4.07-2.14-.43-3.64.86-3.64.86l-1.29-1.29s2.14-2.14,5.14-1.29c3,.64,4.71,3.64,5.14,5.57.64,1.71.43,4.07.43,4.07Z" class="cls-1"></path>
      <path d="m78.19,17.67c-.64.86-1.07,1.71-1.5,2.57v-.64c.21.64.64,1.29,1.07,1.93.21.21.21.43.43.64-.64.21-1.29,0-1.93-.43s-1.07-.86-1.29-1.5v-.64c.64-1.29,1.93-2.36,3.21-1.93h0Z" class="cls-1"></path>
    </g>
    <path d="m56.13,11.24c1.07-.64,2.14-.86,3.21-1.29,1.07-.21,2.36-.64,3.43-.21l-.21,1.71c-1.07.21-2.14,0-3.21,0-1.07.21-2.14,0-3.21-.21h0Z" class="cls-1"></path>
    <path d="m66.62,31.16c.43,1.93-.43,3.86-1.71,5.14v-4.93c0,.21,1.71-.21,1.71-.21h0Z" class="cls-1"></path>
    <path d="m39.63,50.01c-2.14-1.5-2.78-4.5-2.78-7.07,1.29,1.93,2.78,3.43,4.28,5.14.21.21-1.5,1.93-1.5,1.93h0Z" class="cls-1"></path>
    <path d="m57.63,79.15c2.57.64,4.71,2.78,5.14,5.36-1.5-1.71-3.64-2.78-5.57-3.64-.21-.21.43-1.71.43-1.71h0Z" class="cls-1"></path>
    <path d="m83.55,61.15c-.86-.64-1.71-1.93-2.36-3-.21-.43-.43-.64-.86-1.07.86.43,1.5.64,2.36,1.29.64.43,1.5.86,2.14,1.5l-1.29,1.29h0Z" class="cls-1"></path>
    <path d="m116.11,50.66c-.21-1.07.43-1.93,1.07-2.78.64-.86,1.29-1.71,2.14-2.36-.21.43-.21,1.07-.43,1.5-.21.64-.43,2.14-.43,2.78,0,.43-.21.86-.64,1.29l-1.71-.43h0Z" class="cls-1"></path>
    <path d="m82.05,51.73l-1.29-.21-5.14-9c-1.07.86-1.71,2.36-1.71,3.64,0,1.71.86,3.43,2.36,4.28l-.86,1.5c-1.93-1.07-3.21-3.43-3.21-5.78s1.29-4.5,3.21-5.78l1.29.21,5.14,9c1.07-.86,1.71-2.36,1.71-3.64,0-1.71-.86-3.43-2.36-4.28l.86-1.5c1.93,1.07,3.21,3.43,3.21,5.78s-1.29,4.71-3.21,5.78Z" class="cls-1"></path>
  </g>
</svg>