<svg width="185" height="48" viewBox="0 0 185 48" fill="none" xmlns="http://www.w3.org/2000/svg">
<g clip-path="url(#clip0_49_358)">
<path d="M9.38382 14.5966H0V7.96328H26.8459V14.5966H17.5029V40.2244H9.38382V14.5966Z" fill="black"/>
<path d="M27.6945 17.1178L31.1706 31.1922H31.2604L35.1445 17.1178H41.4602L45.3443 31.1922H45.483L48.9591 17.1178H55.9521L49.4976 40.2162H42.7331L38.2697 25.6033H38.1799L33.7165 40.2162H26.952L20.4976 17.1178H27.719H27.6945Z" fill="black"/>
<path d="M55.3318 28.7119C55.3318 21.4503 59.9829 16.3508 67.7429 16.3508C75.5029 16.3508 80.0153 21.3116 80.0153 28.5732C80.0153 35.8348 75.3642 40.9832 67.6042 40.9832C59.8442 40.9832 55.3318 36.0224 55.3318 28.7119ZM72.7041 28.6711C72.7041 24.2081 70.9008 21.7685 67.694 21.7685C64.4871 21.7685 62.643 24.2081 62.643 28.6711C62.643 33.1341 64.4463 35.5737 67.694 35.5737C70.9416 35.5737 72.7041 33.1341 72.7041 28.6711Z" fill="black"/>
<path d="M102.055 28.7119C102.055 21.4503 106.706 16.3508 114.466 16.3508C122.226 16.3508 126.739 21.3116 126.739 28.5732C126.739 35.8348 122.096 40.9832 114.328 40.9832C106.559 40.9832 102.055 36.0224 102.055 28.7119ZM119.419 28.6711C119.419 24.2081 117.616 21.7685 114.409 21.7685C111.202 21.7685 109.358 24.2081 109.358 28.6711C109.358 33.1341 111.162 35.5737 114.409 35.5737C117.657 35.5737 119.419 33.1341 119.419 28.6711Z" fill="black"/>
<path d="M135.837 7.96328V40.2162H128.615V7.96328H135.837Z" fill="black"/>
<path d="M154.556 19.4676V8.01224H161.777V40.2652H154.556V37.9643H154.466C153.56 39.18 151.128 40.9832 147.791 40.9832C141.655 40.9832 137.73 36.2917 137.73 28.7119C137.73 21.1321 141.655 16.4406 147.791 16.4406C151.128 16.4406 153.568 18.2438 154.466 19.4595H154.556V19.4676ZM154.417 28.7119C154.417 24.1999 152.703 21.8582 149.774 21.8582C146.845 21.8582 145.123 24.2081 145.123 28.7119C145.123 33.2157 146.836 35.5655 149.774 35.5655C152.711 35.5655 154.417 33.2157 154.417 28.7119Z" fill="black"/>
<path d="M185 33.4931C185 38.3233 181.344 40.9832 174.67 40.9832C166.591 40.9832 163.433 37.0994 163.254 32.5956H170.018C170.247 34.8965 171.781 36.0224 174.531 36.0224C176.652 36.0224 177.599 35.3452 177.599 34.0398C177.599 31.9674 175.298 31.7389 171.96 30.9719C167.897 30.0255 163.703 28.4018 163.703 23.7103C163.703 19.3779 167.309 16.4487 173.813 16.4487C181.214 16.4487 184.102 20.1938 184.323 24.257H177.558C177.33 22.4049 176.342 21.4176 173.951 21.4176C171.969 21.4176 171.112 22.1356 171.112 23.2698C171.112 24.8037 172.466 24.9424 175.942 25.7093C180.496 26.7455 185.008 28.1489 185.008 33.5176L185 33.4931Z" fill="black"/>
<path d="M111.325 4.44671C111.219 3.01887 110.599 2.00714 109.236 1.077C108.028 0.244774 106.429 -0.106067 104.462 0.0326375C103.083 0.138706 101.77 0.473229 100.546 1.04437C99.2972 1.62366 98.2201 2.39062 97.3551 3.3126C96.1719 4.5691 95.1764 6.20092 94.4094 8.16726C93.7893 9.75829 93.2426 11.6838 92.7856 13.895H88.6078L87.5633 18.8394L91.8309 18.823L86.2251 48.0082L94.0014 47.1596L99.4522 18.7986L103.728 18.7823L104.772 13.8542L100.407 13.8705L100.423 13.7807C100.676 12.2631 100.929 10.8434 101.19 9.57063C101.451 8.27333 101.745 7.1229 102.072 6.15196C102.357 5.29526 102.692 4.63437 103.043 4.25089C103.312 3.97348 103.622 3.72055 103.956 3.51657C104.038 3.46762 104.12 3.42682 104.209 3.39419C104.103 3.51657 103.997 3.64712 103.899 3.78582C103.214 4.72412 102.888 5.84192 102.969 7.01683C102.994 8.02856 103.418 8.84447 104.185 9.38297C104.87 9.8562 105.743 10.0602 106.788 9.98674C107.751 9.92147 108.599 9.60326 109.317 9.0566C109.978 8.54258 110.509 7.88985 110.884 7.11474L110.917 7.04131C111.202 6.28251 111.349 5.57267 111.374 4.79755V4.74044L111.349 4.47119L111.325 4.44671Z" fill="black"/>
</g>
<defs>
<clipPath id="clip0_49_358">
<rect width="185" height="48" fill="white"/>
</clipPath>
</defs>
</svg>
